<svg width="299" height="31" viewBox="0 0 299 31" fill="none" xmlns="http://www.w3.org/2000/svg">
<path d="M1.86713 1.97391H14.4275V14.5343H1.86713V1.97391Z" fill="#F35325"/>
<path d="M15.6836 1.97391H28.2439V14.5343H15.6836V1.97391Z" fill="#81BC06"/>
<path d="M1.86713 15.7903H14.4275V28.3507H1.86713V15.7903Z" fill="#05A6F0"/>
<path d="M15.6836 15.7903H28.2439V28.3507H15.6836V15.7903Z" fill="#FFBA08"/>
<path d="M51.0831 22.6623H48.1409V14.7489C48.1409 13.8942 48.1778 12.9504 48.2516 11.9174H48.1778C48.0241 12.7291 47.8858 13.3132 47.7628 13.6698L44.6638 22.6623H42.2289L39.0746 13.762C38.9886 13.5222 38.8502 12.9074 38.6596 11.9174H38.5766C38.6565 13.221 38.6965 14.3646 38.6965 15.3484V22.6623H36.0126V9.43641H40.3751L43.0775 17.276C43.2927 17.9032 43.4495 18.5335 43.5478 19.1668H43.6032C43.7692 18.4351 43.9444 17.7987 44.1289 17.2576L46.8313 9.43641H51.0831V22.6623ZM55.2796 11.7237C54.7877 11.7237 54.385 11.5792 54.0714 11.2903C53.7578 10.9951 53.601 10.6354 53.601 10.2112C53.601 9.77459 53.7578 9.41797 54.0714 9.14127C54.385 8.86458 54.7877 8.72623 55.2796 8.72623C55.7777 8.72623 56.1804 8.86458 56.4878 9.14127C56.8014 9.41797 56.9582 9.77459 56.9582 10.2112C56.9582 10.6539 56.8014 11.0166 56.4878 11.2995C56.1804 11.5823 55.7777 11.7237 55.2796 11.7237ZM56.7184 22.6623H53.8039V13.2179H56.7184V22.6623ZM66.3289 22.3211C65.671 22.7023 64.721 22.8929 63.4789 22.8929C62.0278 22.8929 60.8534 22.4533 59.9557 21.574C59.058 20.6947 58.6091 19.5603 58.6091 18.1707C58.6091 16.5659 59.0887 15.3023 60.0479 14.38C61.0133 13.4515 62.3015 12.9873 63.9124 12.9873C65.0253 12.9873 65.8308 13.1349 66.3289 13.43V15.9018C65.7201 15.4468 65.0407 15.2193 64.2906 15.2193C63.4543 15.2193 62.7903 15.4652 62.2984 15.9571C61.8126 16.4429 61.5698 17.1162 61.5698 17.977C61.5698 18.8132 61.8034 19.4711 62.2707 19.9507C62.738 20.4242 63.3806 20.6609 64.1983 20.6609C64.9239 20.6609 65.6341 20.4334 66.3289 19.9784V22.3211ZM74.4083 15.8465C74.0578 15.6558 73.6489 15.5605 73.1816 15.5605C72.5483 15.5605 72.0533 15.7942 71.6967 16.2615C71.3401 16.7227 71.1618 17.3529 71.1618 18.1522V22.6623H68.2473V13.2179H71.1618V14.9703H71.1987C71.6598 13.6913 72.4899 13.0519 73.6889 13.0519C73.9963 13.0519 74.2361 13.0888 74.4083 13.1625V15.8465ZM80.2004 22.8929C78.6263 22.8929 77.3874 22.4533 76.4835 21.574C75.5858 20.6886 75.1369 19.4896 75.1369 17.977C75.1369 16.4152 75.6042 15.1947 76.5388 14.3154C77.4734 13.43 78.737 12.9873 80.3295 12.9873C81.8974 12.9873 83.1272 13.43 84.0188 14.3154C84.9103 15.1947 85.3561 16.3599 85.3561 17.811C85.3561 19.3789 84.895 20.6179 83.9726 21.5279C83.0565 22.4379 81.7991 22.8929 80.2004 22.8929ZM80.2742 15.2193C79.5855 15.2193 79.0506 15.456 78.6694 15.9295C78.2881 16.4029 78.0975 17.0731 78.0975 17.9401C78.0975 19.754 78.8292 20.6609 80.2926 20.6609C81.6884 20.6609 82.3863 19.7294 82.3863 17.8663C82.3863 16.1016 81.6822 15.2193 80.2742 15.2193ZM86.6289 22.4133V20.0522C87.1085 20.3412 87.585 20.5564 88.0585 20.6978C88.5381 20.8392 88.99 20.9099 89.4143 20.9099C89.9308 20.9099 90.3366 20.8392 90.6317 20.6978C90.933 20.5564 91.0836 20.3412 91.0836 20.0522C91.0836 19.8677 91.016 19.714 90.8807 19.591C90.7455 19.4681 90.5702 19.3605 90.355 19.2682C90.146 19.176 89.9154 19.093 89.6633 19.0192C89.4112 18.9454 89.1683 18.8624 88.9347 18.7702C88.5596 18.6288 88.2276 18.4781 87.9386 18.3182C87.6557 18.1522 87.4159 17.9616 87.2192 17.7464C87.0286 17.5312 86.881 17.2822 86.7765 16.9993C86.6781 16.7165 86.6289 16.3814 86.6289 15.994C86.6289 15.4652 86.7426 15.0102 86.9701 14.629C87.2038 14.2478 87.5112 13.9373 87.8925 13.6975C88.2798 13.4515 88.7195 13.2732 89.2114 13.1625C89.7094 13.0457 90.2259 12.9873 90.7608 12.9873C91.179 12.9873 91.6032 13.0211 92.0336 13.0888C92.464 13.1502 92.8883 13.2425 93.3064 13.3654V15.6159C92.9375 15.4007 92.5409 15.2408 92.1166 15.1363C91.6985 15.0256 91.2866 14.9703 90.8807 14.9703C90.6901 14.9703 90.5087 14.9887 90.3366 15.0256C90.1706 15.0563 90.023 15.1055 89.8939 15.1732C89.7647 15.2347 89.6633 15.3177 89.5895 15.4222C89.5157 15.5206 89.4788 15.6343 89.4788 15.7635C89.4788 15.9356 89.5342 16.0832 89.6448 16.2062C89.7555 16.3291 89.9 16.4367 90.0783 16.529C90.2566 16.6151 90.4534 16.695 90.6686 16.7688C90.89 16.8364 91.1082 16.9071 91.3234 16.9809C91.7108 17.1162 92.0613 17.2637 92.3749 17.4236C92.6885 17.5835 92.9559 17.771 93.1773 17.9862C93.4048 18.2014 93.577 18.4535 93.6938 18.7425C93.8168 19.0315 93.8782 19.3758 93.8782 19.7755C93.8782 20.335 93.7553 20.8146 93.5093 21.2143C93.2695 21.6078 92.9467 21.9306 92.5409 22.1827C92.1412 22.4287 91.677 22.607 91.1482 22.7177C90.6256 22.8345 90.0814 22.8929 89.5157 22.8929C88.4766 22.8929 87.5143 22.733 86.6289 22.4133ZM100.067 22.8929C98.4929 22.8929 97.2539 22.4533 96.35 21.574C95.4523 20.6886 95.0035 19.4896 95.0035 17.977C95.0035 16.4152 95.4708 15.1947 96.4054 14.3154C97.34 13.43 98.6035 12.9873 100.196 12.9873C101.764 12.9873 102.994 13.43 103.885 14.3154C104.777 15.1947 105.223 16.3599 105.223 17.811C105.223 19.3789 104.761 20.6179 103.839 21.5279C102.923 22.4379 101.666 22.8929 100.067 22.8929ZM100.141 15.2193C99.4521 15.2193 98.9171 15.456 98.5359 15.9295C98.1547 16.4029 97.9641 17.0731 97.9641 17.9401C97.9641 19.754 98.6958 20.6609 100.159 20.6609C101.555 20.6609 102.253 19.7294 102.253 17.8663C102.253 16.1016 101.549 15.2193 100.141 15.2193ZM112.979 10.9121C112.604 10.7645 112.244 10.6908 111.9 10.6908C110.966 10.6908 110.498 11.198 110.498 12.2126V13.2179H112.656V15.3669H110.498V22.6623H107.593V15.3669H106.007V13.2179H107.593V12.0465C107.593 10.9705 107.943 10.1035 108.644 9.44563C109.345 8.78772 110.298 8.45876 111.504 8.45876C112.094 8.45876 112.586 8.52025 112.979 8.64323V10.9121ZM120.146 22.5516C119.715 22.7791 119.067 22.8929 118.2 22.8929C116.146 22.8929 115.119 21.8261 115.119 19.6925V15.3669H113.588V13.2179H115.119V11.1796L118.024 10.3495V13.2179H120.146V15.3669H118.024V19.1852C118.024 20.169 118.415 20.6609 119.196 20.6609C119.503 20.6609 119.82 20.5718 120.146 20.3934V22.5516Z" fill="#828282"/>
<line x1="132" y1="10.7179" x2="132" y2="21.829" stroke="#828282" stroke-width="0.555556"/>
<path d="M152.703 21.8099C151.696 22.2265 150.646 22.4349 149.552 22.4349C147.851 22.4349 146.462 21.8649 145.385 20.7248C144.315 19.579 143.78 18.0859 143.78 16.2456C143.78 14.226 144.361 12.6085 145.524 11.3932C146.687 10.1721 148.166 9.56161 149.96 9.56161C150.915 9.56161 151.829 9.71497 152.703 10.0217V10.9331C151.829 10.5396 150.909 10.3429 149.943 10.3429C148.38 10.3429 147.11 10.8724 146.132 11.9314C145.154 12.9904 144.665 14.3996 144.665 16.1588C144.665 17.8544 145.131 19.1941 146.062 20.1779C147 21.1559 148.186 21.6449 149.622 21.6449C150.767 21.6449 151.795 21.4221 152.703 20.9765V21.8099ZM161.167 22.2179V20.6033H161.132C160.513 21.8243 159.558 22.4349 158.267 22.4349C156.167 22.4349 155.116 21.1125 155.116 18.4679V13.329H155.924V18.2682C155.924 19.4719 156.12 20.3458 156.514 20.8897C156.913 21.4337 157.538 21.7057 158.389 21.7057C159.216 21.7057 159.885 21.4019 160.394 20.7943C160.909 20.1866 161.167 19.3764 161.167 18.3637V13.329H161.965V22.2179H161.167ZM164.352 21.8272V20.8637C164.653 21.1241 165.018 21.3296 165.446 21.48C165.874 21.6305 166.245 21.7057 166.557 21.7057C167.952 21.7057 168.649 21.1357 168.649 19.9956C168.649 19.6021 168.496 19.2665 168.189 18.9887C167.883 18.7109 167.385 18.4245 166.696 18.1293C165.845 17.759 165.247 17.377 164.899 16.9835C164.558 16.5842 164.387 16.101 164.387 15.5338C164.387 14.8105 164.662 14.226 165.212 13.7804C165.767 13.3348 166.45 13.112 167.26 13.112C168.024 13.112 168.678 13.2682 169.222 13.5807V14.4835C168.562 14.0552 167.88 13.8411 167.174 13.8411C166.589 13.8411 166.117 13.9945 165.759 14.3012C165.4 14.6021 165.22 14.9956 165.22 15.4818C165.22 15.9042 165.333 16.2485 165.559 16.5147C165.785 16.7752 166.282 17.0761 167.052 17.4175C167.978 17.8342 168.615 18.2219 168.962 18.5807C169.309 18.9337 169.483 19.4054 169.483 19.9956C169.483 20.7017 169.216 21.2862 168.684 21.7491C168.157 22.2063 167.428 22.4349 166.497 22.4349C165.64 22.4349 164.925 22.2323 164.352 21.8272ZM175.238 22.0963C174.821 22.2931 174.431 22.3915 174.066 22.3915C172.752 22.3915 172.095 21.6044 172.095 20.0304V14.0581H170.498V13.329H172.095V11.0199C172.223 10.9737 172.356 10.9274 172.495 10.8811C172.634 10.8405 172.767 10.7971 172.894 10.7509V13.329H175.238V14.0581H172.894V19.9262C172.894 20.5396 172.99 20.9852 173.181 21.263C173.377 21.535 173.707 21.671 174.17 21.671C174.5 21.671 174.856 21.5639 175.238 21.3498V22.0963ZM180.568 22.4349C179.271 22.4349 178.244 22.0095 177.486 21.1588C176.734 20.3024 176.358 19.1912 176.358 17.8255C176.358 16.3498 176.751 15.1953 177.538 14.362C178.331 13.5286 179.373 13.112 180.663 13.112C181.931 13.112 182.932 13.5257 183.667 14.3533C184.402 15.1808 184.769 16.3267 184.769 17.7908C184.769 19.1739 184.393 20.2937 183.641 21.1502C182.894 22.0066 181.87 22.4349 180.568 22.4349ZM180.628 13.8411C179.581 13.8411 178.745 14.1941 178.12 14.9002C177.501 15.6062 177.191 16.5871 177.191 17.8429C177.191 19.0061 177.495 19.9407 178.102 20.6467C178.71 21.3527 179.541 21.7057 180.594 21.7057C181.664 21.7057 182.489 21.3585 183.068 20.664C183.646 19.9696 183.936 19.0061 183.936 17.7734C183.936 16.5061 183.646 15.5338 183.068 14.8568C182.495 14.1797 181.682 13.8411 180.628 13.8411ZM198.128 22.2179V16.8706C198.128 15.7537 197.952 14.9696 197.599 14.5182C197.252 14.0668 196.699 13.8411 195.941 13.8411C195.241 13.8411 194.636 14.1421 194.127 14.7439C193.617 15.3458 193.363 16.101 193.363 17.0095V22.2179H192.564V16.8099C192.564 14.8307 191.812 13.8411 190.307 13.8411C189.584 13.8411 188.982 14.1449 188.502 14.7526C188.021 15.3544 187.781 16.1357 187.781 17.0963V22.2179H186.983V13.329H187.781V14.8047H187.816C188.435 13.6762 189.341 13.112 190.533 13.112C191.181 13.112 191.734 13.3 192.191 13.6762C192.654 14.0466 192.966 14.5356 193.128 15.1432C193.406 14.5009 193.803 14.0032 194.318 13.6502C194.839 13.2914 195.403 13.112 196.01 13.112C197.955 13.112 198.927 14.3157 198.927 16.7231V22.2179H198.128ZM201.792 17.8081C201.792 19.0292 202.072 19.9841 202.634 20.6727C203.201 21.3614 203.976 21.7057 204.96 21.7057C205.955 21.7057 206.928 21.3382 207.877 20.6033V21.454C206.957 22.1079 205.929 22.4349 204.795 22.4349C203.649 22.4349 202.723 22.024 202.017 21.2022C201.311 20.3805 200.958 19.2202 200.958 17.7213C200.958 16.425 201.326 15.3342 202.061 14.4488C202.802 13.5576 203.762 13.112 204.943 13.112C206.048 13.112 206.896 13.4997 207.486 14.2752C208.076 15.0506 208.372 16.1096 208.372 17.4522V17.8081H201.792ZM207.538 17.079C207.503 16.0547 207.258 15.259 206.8 14.6918C206.343 14.1247 205.712 13.8411 204.908 13.8411C204.075 13.8411 203.383 14.1218 202.833 14.6831C202.289 15.2387 201.954 16.0373 201.826 17.079H207.538ZM214.769 14.1623C214.503 13.9713 214.19 13.8759 213.832 13.8759C213.131 13.8759 212.544 14.2375 212.069 14.9609C211.595 15.6843 211.358 16.7115 211.358 18.0425V22.2179H210.576V13.329H211.358V15.2995H211.392C211.595 14.6224 211.916 14.0958 212.356 13.7196C212.796 13.3434 213.305 13.1554 213.884 13.1554C214.214 13.1554 214.509 13.2074 214.769 13.3116V14.1623ZM221.497 22.2179V9.76995H222.356V22.2179H221.497ZM231.427 22.2179V17.0443C231.427 14.9088 230.657 13.8411 229.118 13.8411C228.262 13.8411 227.558 14.1565 227.009 14.7873C226.459 15.4123 226.184 16.1878 226.184 17.1137V22.2179H225.385V13.329H226.184V14.9436H226.219C226.867 13.7225 227.88 13.112 229.257 13.112C230.218 13.112 230.953 13.4331 231.462 14.0755C231.971 14.7121 232.226 15.6235 232.226 16.8099V22.2179H231.427ZM240.941 22.2179V17.0443C240.941 14.9088 240.171 13.8411 238.632 13.8411C237.775 13.8411 237.072 14.1565 236.523 14.7873C235.973 15.4123 235.698 16.1878 235.698 17.1137V22.2179H234.899V13.329H235.698V14.9436H235.733C236.381 13.7225 237.394 13.112 238.771 13.112C239.731 13.112 240.466 13.4331 240.976 14.0755C241.485 14.7121 241.74 15.6235 241.74 16.8099V22.2179H240.941ZM247.981 22.4349C246.685 22.4349 245.657 22.0095 244.899 21.1588C244.147 20.3024 243.771 19.1912 243.771 17.8255C243.771 16.3498 244.164 15.1953 244.951 14.362C245.744 13.5286 246.786 13.112 248.076 13.112C249.344 13.112 250.345 13.5257 251.08 14.3533C251.815 15.1808 252.182 16.3267 252.182 17.7908C252.182 19.1739 251.806 20.2937 251.054 21.1502C250.307 22.0066 249.283 22.4349 247.981 22.4349ZM248.042 13.8411C246.994 13.8411 246.158 14.1941 245.533 14.9002C244.914 15.6062 244.604 16.5871 244.604 17.8429C244.604 19.0061 244.908 19.9407 245.516 20.6467C246.123 21.3527 246.954 21.7057 248.007 21.7057C249.078 21.7057 249.902 21.3585 250.481 20.664C251.06 19.9696 251.349 19.0061 251.349 17.7734C251.349 16.5061 251.06 15.5338 250.481 14.8568C249.908 14.1797 249.095 13.8411 248.042 13.8411ZM257.312 22.2179H256.583L253.146 13.329H254.04L256.687 20.4036C256.815 20.7451 256.905 21.0547 256.957 21.3324H256.991C257.067 20.9679 257.15 20.6698 257.243 20.4384L259.977 13.329H260.845L257.312 22.2179ZM267.764 22.2179V20.4384H267.729C267.446 21.046 267.032 21.5321 266.488 21.8967C265.95 22.2555 265.351 22.4349 264.691 22.4349C263.846 22.4349 263.178 22.1976 262.686 21.7231C262.194 21.2485 261.948 20.6496 261.948 19.9262C261.948 18.3753 262.975 17.4378 265.03 17.1137L267.764 16.7057C267.764 14.796 267.046 13.8411 265.611 13.8411C264.633 13.8411 263.681 14.2346 262.755 15.0217V14.0581C263.085 13.7977 263.531 13.5749 264.092 13.3897C264.659 13.2046 265.192 13.112 265.689 13.112C266.604 13.112 267.31 13.3955 267.807 13.9627C268.311 14.5298 268.563 15.3544 268.563 16.4366V22.2179H267.764ZM265.316 17.7908C264.384 17.9239 263.73 18.1409 263.354 18.4418C262.978 18.737 262.79 19.2202 262.79 19.8915C262.79 20.4181 262.964 20.8521 263.311 21.1936C263.664 21.535 264.153 21.7057 264.778 21.7057C265.634 21.7057 266.346 21.3903 266.913 20.7595C267.48 20.123 267.764 19.3041 267.764 18.3029V17.4349L265.316 17.7908ZM274.752 22.0963C274.335 22.2931 273.944 22.3915 273.58 22.3915C272.266 22.3915 271.609 21.6044 271.609 20.0304V14.0581H270.012V13.329H271.609V11.0199C271.737 10.9737 271.87 10.9274 272.009 10.8811C272.148 10.8405 272.281 10.7971 272.408 10.7509V13.329H274.752V14.0581H272.408V19.9262C272.408 20.5396 272.503 20.9852 272.694 21.263C272.891 21.535 273.221 21.671 273.684 21.671C274.014 21.671 274.37 21.5639 274.752 21.3498V22.0963ZM276.905 11.0894C276.731 11.0894 276.578 11.0257 276.444 10.8984C276.311 10.7711 276.245 10.6091 276.245 10.4123C276.245 10.2213 276.311 10.068 276.444 9.95224C276.583 9.83071 276.737 9.76995 276.905 9.76995C277.084 9.76995 277.24 9.82782 277.373 9.94356C277.512 10.0593 277.582 10.2155 277.582 10.4123C277.582 10.5975 277.515 10.7566 277.382 10.8897C277.249 11.0228 277.09 11.0894 276.905 11.0894ZM276.514 22.2179V13.329H277.312V22.2179H276.514ZM283.727 22.4349C282.431 22.4349 281.404 22.0095 280.646 21.1588C279.894 20.3024 279.517 19.1912 279.517 17.8255C279.517 16.3498 279.911 15.1953 280.698 14.362C281.491 13.5286 282.532 13.112 283.823 13.112C285.09 13.112 286.091 13.5257 286.826 14.3533C287.561 15.1808 287.929 16.3267 287.929 17.7908C287.929 19.1739 287.553 20.2937 286.8 21.1502C286.054 22.0066 285.03 22.4349 283.727 22.4349ZM283.788 13.8411C282.741 13.8411 281.905 14.1941 281.28 14.9002C280.66 15.6062 280.351 16.5871 280.351 17.8429C280.351 19.0061 280.655 19.9407 281.262 20.6467C281.87 21.3527 282.7 21.7057 283.753 21.7057C284.824 21.7057 285.649 21.3585 286.227 20.664C286.806 19.9696 287.095 19.0061 287.095 17.7734C287.095 16.5061 286.806 15.5338 286.227 14.8568C285.655 14.1797 284.841 13.8411 283.788 13.8411ZM296.184 22.2179V17.0443C296.184 14.9088 295.414 13.8411 293.875 13.8411C293.019 13.8411 292.315 14.1565 291.766 14.7873C291.216 15.4123 290.941 16.1878 290.941 17.1137V22.2179H290.142V13.329H290.941V14.9436H290.976C291.624 13.7225 292.637 13.112 294.014 13.112C294.975 13.112 295.709 13.4331 296.219 14.0755C296.728 14.7121 296.983 15.6235 296.983 16.8099V22.2179H296.184Z" fill="#828282"/>
</svg>
