<svg width="421" height="215" viewBox="0 0 421 215" fill="none" xmlns="http://www.w3.org/2000/svg">
<g clip-path="url(#clip0_2_8)">
<path d="M401.988 118.864L400.673 129.356L397.407 155.416H331.81C332.322 149.575 333.022 141.168 333.77 132.092C333.844 131.186 333.921 130.274 333.995 129.356C335.871 106.542 337.924 80.7256 337.924 80.7256L346.548 82.3346L363.28 85.4504L370.098 86.7194L388.356 90.1242C397.459 91.8181 403.72 105.018 401.988 118.864Z" fill="#F2F2F2"/>
<path d="M352.37 38.5085L360.436 52.6458L344.932 63.65L338.318 46.2726L352.37 38.5085Z" fill="#FFB6B6"/>
<path d="M342.1 51.8831C353.137 51.8831 362.084 42.9226 362.084 31.8693C362.084 20.8159 353.137 11.8554 342.1 11.8554C331.063 11.8554 322.116 20.8159 322.116 31.8693C322.116 42.9226 331.063 51.8831 342.1 51.8831Z" fill="#FFB6B6"/>
<path d="M340.665 36.3435C339.078 33.9249 339.701 32.6598 338.372 31.771C338.372 31.771 337.838 31.4133 334.012 31.2094C333.155 25.0351 332.086 24.2864 332.086 24.2863C330.854 23.4234 329.025 23.7038 327.887 24.2316C325.48 25.3478 325.759 27.7591 324.139 28.2205C321.901 28.8579 317.829 25.2646 317.427 21.1509C317.1 17.7953 319.259 14.5362 320.115 14.7086C320.964 14.8796 322.996 12.2809 324.094 12.321C324.843 12.3483 327.906 11.0154 328.729 11.1196C329.629 11.2334 332.595 12.7837 332.719 12.4295C333.578 9.96826 333.325 9.28538 334.054 8.58128C335.346 7.33362 337.458 8.20246 340.773 8.6689C347.592 9.62862 348.783 7.37669 352.277 8.90306C354.043 9.67411 355.52 11.7535 358.402 15.8809C362.433 21.653 364.449 24.539 364.462 27.9052C364.475 31.3381 362.815 31.1201 362.086 36.2022C361.274 41.8594 362.999 44.4462 361.115 46.2842C359.659 47.7046 356.699 48.0418 355.145 46.7951C352.482 44.6607 355.966 39.5104 353.02 35.7475C351.212 33.4377 347.575 32.41 345.909 33.5517C344.025 34.8427 345.063 38.632 343.738 38.9913C342.604 39.299 340.941 36.7649 340.665 36.3435Z" fill="#2F2E41"/>
<path d="M387.217 115.169C386.66 124.714 384.446 127.727 383.67 139C383.501 141.474 383.399 144.347 383.399 147.773C383.399 148.646 383.404 149.491 383.404 150.316C383.404 152.072 383.37 153.732 383.166 155.416C383.012 156.76 382.745 158.114 382.304 159.54H339.263C339.258 159.531 339.258 159.521 339.253 159.511C339.001 158.415 338.841 157.366 338.72 156.362C338.681 156.042 338.647 155.726 338.618 155.416C338.58 155.052 338.545 154.693 338.512 154.339C338.381 152.926 338.25 151.592 337.94 150.316C337.523 148.554 336.767 146.895 335.217 145.293C334.582 144.638 333.948 144.129 333.327 143.682C333.206 143.6 333.09 143.517 332.969 143.435C331.253 142.256 329.63 141.406 328.225 139C328.201 138.966 328.181 138.927 328.162 138.893C327.92 138.471 327.29 137.364 326.834 135.889C326.354 134.356 326.064 132.429 326.587 130.459C327.833 125.791 332.445 125.325 336.215 120.609C336.622 120.099 337.024 119.536 337.407 118.91C339.112 116.134 339.573 113.689 340.115 110.782C340.203 110.311 340.28 109.846 340.343 109.394C340.392 109.055 340.435 108.72 340.469 108.39C340.769 105.619 340.624 103.232 340.271 101.096C339.118 94.1039 335.716 89.7755 338.119 83.5011C338.875 81.5312 339.946 80.051 341.026 78.7846C343.313 76.101 345.664 74.359 345.257 70.8944C344.844 67.4005 342.199 66.92 341.904 63.8678C341.753 62.3248 342.257 60.6992 343.202 59.1027V59.0979C346.226 53.9589 353.775 49.2277 358.571 49.3782C359.458 49.4026 360.243 49.6014 360.897 49.9847C363.267 51.3822 362.278 54.4345 365.908 58.7145C368.606 61.8929 371.659 63.1643 372.817 63.7659C377.405 66.1632 381.136 73.2333 383.67 82.2735C383.69 82.3415 383.709 82.4093 383.728 82.4822C385.294 88.1451 386.399 94.5747 386.946 101.096C387.178 103.858 387.314 106.633 387.343 109.38C387.368 111.573 387.319 113.475 387.217 115.169Z" fill="#6C63FF"/>
<path d="M354.986 147.87L354.109 150.316L353.557 151.849L352.277 155.416L350.795 159.54H341.264L342.863 155.416L343.604 153.494L344.835 150.316L346.899 144.978L354.986 147.87Z" fill="#FFB6B6"/>
<path d="M383.821 81.4388C383.796 81.7544 383.762 82.1036 383.728 82.4823C383.351 86.3352 382.459 93.2306 381.156 101.097C380.468 105.245 379.663 109.666 378.757 114.058C376.81 123.535 374.387 132.866 371.649 139C371.16 140.106 370.656 141.106 370.142 141.989C369.75 142.663 369.338 143.328 368.906 143.983C367.511 146.133 365.946 148.171 364.323 150.073C364.26 150.156 364.187 150.233 364.115 150.316C363.853 150.626 363.581 150.932 363.31 151.238C361.982 152.737 360.626 154.135 359.313 155.416C357.714 156.978 356.173 158.361 354.792 159.54H339.316L339.253 159.511L337.024 158.521C337.024 158.521 337.659 157.774 338.72 156.362C338.938 156.076 339.171 155.76 339.423 155.416C339.733 154.994 340.067 154.528 340.425 154.023C341.172 152.965 342.02 151.723 342.93 150.316C344.694 147.593 346.705 144.245 348.735 140.368C348.968 139.917 349.205 139.461 349.443 139C349.447 138.985 349.457 138.97 349.462 138.956C349.864 138.17 350.262 137.359 350.659 136.534C354.026 129.518 354.991 123.695 355.267 121.807C355.655 119.138 356.192 115.407 356.047 111.301C355.95 108.594 355.558 105.731 354.623 102.887V102.882C354.429 102.285 354.21 101.689 353.964 101.097C353.522 100.034 352.999 98.9856 352.379 97.9521C349.641 93.4005 347.418 93.2111 345.649 88.2518C345.125 86.7815 343.938 83.4625 344.302 79.9589V79.9541C344.346 79.5222 344.418 79.0855 344.515 78.6486V78.6438C344.539 78.5225 344.573 78.3965 344.607 78.2752C344.883 77.2028 345.339 76.1398 346.032 75.1305C347.383 73.1703 349.229 72.0055 350.882 71.3117L350.887 71.3067C352.796 70.5111 354.443 70.3412 354.763 70.3121C361.842 69.6813 367.332 75.6401 370.331 78.8962C371.489 80.1529 372.55 81.2061 373.52 82.0648C381.063 88.81 383.133 84.5008 383.67 82.2735C383.752 81.929 383.796 81.6331 383.821 81.4388Z" fill="#6C63FF"/>
<path d="M383.845 81.1867C383.845 81.2108 383.84 81.2928 383.821 81.4281C383.83 81.3555 383.835 81.2831 383.84 81.2155C383.84 81.2011 383.84 81.1914 383.845 81.1867Z" fill="#6C63FF"/>
<path d="M345.363 183.58H85.6281C83.2149 183.58 81.2479 185.545 81.2479 187.962C81.2479 190.384 83.2149 192.349 85.6281 192.349H345.363C347.776 192.349 349.739 190.384 349.739 187.962C349.739 185.545 347.776 183.58 345.363 183.58Z" fill="#E6E6E6"/>
<path d="M287.723 206.232H143.264C140.851 206.232 138.888 208.197 138.888 210.614C138.888 213.03 140.851 215.001 143.264 215.001H287.723C290.136 215.001 292.103 213.03 292.103 210.614C292.103 208.197 290.136 206.232 287.723 206.232Z" fill="#E6E6E6"/>
<path d="M114.53 39.4388L130.9 32.5396L137.921 46.9543L120.719 53.9859L114.53 39.4388Z" fill="#FFB6B6"/>
<path opacity="0.1" d="M114.53 39.4388L130.9 32.5396L137.921 46.9543L120.719 53.9859L114.53 39.4388Z" fill="black"/>
<path d="M116.857 33.946L133.006 52.5795C133.006 52.5795 121.772 88.0889 110.538 91.2531C99.3045 94.4172 78.5922 109.887 78.5922 109.887L52.614 93.0109L65.252 74.3773C65.252 74.3773 95.794 32.5396 103.868 32.5396C111.943 32.5396 116.857 33.946 116.857 33.946Z" fill="#6C63FF"/>
<path d="M95.0391 155.416H57.4479L55.0713 152.234L45.3681 139.243L43.1353 136.255C43.1353 136.255 34.71 120.786 36.4652 106.722C38.2205 92.6594 56.4755 89.4952 56.4755 89.4952H57.2268L79.575 109.162L78.241 127.466L85.3183 139.243L95.0391 155.416Z" fill="#2F2E41"/>
<path d="M65.1475 155.416H55.0713V140.474L65.1475 155.416Z" fill="#2F2E41"/>
<path d="M282.458 132.732L281.205 139.243L278.094 155.416H215.61C216.098 151.791 216.765 146.574 217.477 140.941C217.548 140.379 217.621 139.813 217.691 139.243C219.478 125.085 221.434 109.064 221.434 109.064L229.649 110.062L245.586 111.996L252.081 112.784L269.472 114.897C278.143 115.948 284.108 124.14 282.458 132.732Z" fill="#F2F2F2"/>
<path d="M370.886 155.416H336.995C337.511 154.808 337.802 154.456 337.802 154.456L347.962 152.776L368.895 149.316C368.895 149.316 369.85 151.788 370.886 155.416Z" fill="#2F2E41"/>
<path d="M227.129 46.4709L241.868 67.3455L216.159 68.1144L213.399 48.4972L227.129 46.4709Z" fill="#A0616A"/>
<path opacity="0.1" d="M227.129 46.4709L241.868 67.3455L216.159 68.1144L213.399 48.4972L227.129 46.4709Z" fill="black"/>
<path d="M154.445 89.7216C152.553 84.258 148.206 80.8066 144.734 82.0125C141.262 83.2184 139.982 88.6243 141.874 94.0895C142.6 96.283 143.841 98.2705 145.491 99.8857L153.796 122.934L164.512 118.8L155.187 96.5178C155.485 94.2255 155.231 91.895 154.445 89.7216Z" fill="#A0616A"/>
<path d="M254.211 79.085L254.191 100.359L252.214 108.217L248.149 124.379L245.19 139.243L242.985 150.318L242.199 154.273C241.605 154.671 241.016 155.05 240.426 155.416H189.077C186.159 153.662 184.527 152.297 184.527 152.297C184.527 152.297 185.334 151.538 186.258 150.318C187.816 148.258 189.702 144.883 188.547 141.659C188.304 140.984 188.241 140.161 188.315 139.243C188.785 133.189 195.125 122.951 195.125 122.951L193.812 107.756L193.237 101.097L197.296 68.6289L210.527 60.9258L212.812 60.7045L235.36 59.4845L244.68 60.0224L245.105 60.1385L254.211 79.085Z" fill="#CCCCCC"/>
<path d="M255.212 155.416H243.978L243.484 150.318L243.473 150.216L246.654 149.998L254.928 149.432L255.072 152.484L255.184 154.826L255.212 155.416Z" fill="#FFB6B6"/>
<path d="M257.978 84.2285L262.697 111.957L258.846 139.243L258.245 143.49L257.185 150.99L256.859 153.296L256.869 153.546L256.95 155.416H243.61L243.118 150.318L243.076 149.861L242.072 139.419L242.055 139.243L239.924 117.101L244.101 101.097L244.41 99.9194V99.9159L246.228 72.514L244.82 60.0611L244.806 59.9451C244.834 59.9627 244.859 59.9803 244.887 59.9978C244.961 60.0435 245.034 60.0892 245.105 60.1385C253.305 65.3489 258.192 74.4899 257.978 84.2285Z" fill="#CCCCCC"/>
<path d="M202.075 73.9424L196.945 68.6285C196.945 68.6285 185.964 73.5866 185.416 76.3374C184.869 79.0881 165.479 119.489 165.479 119.489L157.044 96.9251L146.063 104.267C146.063 104.267 154.874 139.298 163.114 140.943C171.354 142.588 198.97 99.4801 198.97 99.4801L202.075 73.9424Z" fill="#CCCCCC"/>
<path d="M410.373 139H10.8837C5.22918 139 0.630829 143.609 0.630829 149.272C0.630829 154.935 5.22918 159.54 10.8837 159.54H410.373C416.028 159.54 420.631 154.935 420.631 149.272C420.631 143.609 416.028 139 410.373 139Z" fill="#E6E6E6"/>
<path d="M251.873 107.697L251.096 143.995C251.021 147.509 248.155 150.318 244.646 150.318H177.973C174.546 150.318 171.718 147.636 171.531 144.209L169.549 107.911C169.347 104.21 172.29 101.097 175.991 101.097H245.423C249.04 101.097 251.95 104.075 251.873 107.697Z" fill="#3F3D56"/>
<path d="M144.24 48.2008C153.05 48.2008 160.192 41.0484 160.192 32.2254C160.192 23.4024 153.05 16.25 144.24 16.25C135.43 16.25 128.288 23.4024 128.288 32.2254C128.288 41.0484 135.43 48.2008 144.24 48.2008Z" fill="#FFB6B6"/>
<path d="M117.559 74.0258L119.315 93.0109L131.251 141.177L120.939 144.797L103.517 92.3078L101.111 71.2131L117.559 74.0258Z" fill="#FFB6B6"/>
<path d="M112.811 107.697L112.035 143.995C111.96 147.509 109.094 150.318 105.584 150.318H38.9112C35.4848 150.318 32.6561 147.636 32.469 144.209L30.4876 107.911C30.2855 104.21 33.2282 101.097 36.9298 101.097H106.361C109.978 101.097 112.889 104.075 112.811 107.697Z" fill="#3F3D56"/>
<path d="M133.151 150.563C140.109 150.563 145.749 148.065 145.749 144.983C145.749 141.901 140.109 139.403 133.151 139.403C126.194 139.403 120.553 141.901 120.553 144.983C120.553 148.065 126.194 150.563 133.151 150.563Z" fill="#FFB6B6"/>
<path d="M92.8099 76.9283L100.007 38.5164C100.007 38.5164 120.017 35.7038 120.719 42.3838C121.421 49.0638 120.217 81.7097 120.217 81.7097L92.8099 76.9283Z" fill="#6C63FF"/>
<path d="M137.8 34.7374C137.8 34.7374 147.668 31.2104 151.831 29.3127C155.993 27.4151 164.262 40.6514 164.446 33.6608C164.63 26.6703 161.773 23.7388 161.773 23.7388C161.773 23.7388 161.059 8.44597 145.675 10.3579C145.675 10.3579 149.059 2.70678 137.951 1.52367C126.843 0.340561 109.563 27.2037 111.11 31.2183C112.658 35.2329 114.513 38.5519 110.122 42.8443C105.732 47.1368 97.5097 71.3622 103.765 77.8811C110.021 84.4 110.431 87.2289 106.145 91.2844C101.859 95.34 91.7282 104.158 102.682 105.689C113.636 107.22 101.68 106.077 109.846 98.8829C118.013 91.6891 129.929 91.983 125.48 80.4411C121.03 68.8993 128.76 52.3599 127.793 49.8508C126.826 47.3417 129.96 31.4087 129.96 31.4087C129.96 31.4087 137.255 30.3354 137.8 34.7374Z" fill="#2F2E41"/>
<path d="M219.249 54.0265C228.839 54.0265 236.613 46.2405 236.613 36.6361C236.613 27.0316 228.839 19.2457 219.249 19.2457C209.659 19.2457 201.884 27.0316 201.884 36.6361C201.884 46.2405 209.659 54.0265 219.249 54.0265Z" fill="#A0616A"/>
<path d="M220.634 13.2559C220.132 13.5496 219.459 13.1052 219.298 12.5453C219.137 11.9854 219.324 11.391 219.511 10.8389L220.447 8.0598C221.112 6.08878 221.817 4.04889 223.256 2.54869C225.428 0.284384 228.88 -0.291645 231.988 0.125668C235.978 0.661582 239.916 2.82564 241.771 6.4042C243.627 9.98275 242.837 14.9761 239.484 17.2088C244.262 22.6938 245.928 28.8066 245.665 36.081C245.402 43.3554 237.486 50.0503 232.324 55.1748C231.172 54.475 230.124 51.1953 230.758 50.0038C231.392 48.8124 230.483 47.432 231.268 46.3346C232.053 45.2371 232.71 46.9846 231.917 45.8934C231.416 45.2048 233.371 43.6207 232.626 43.2086C229.025 41.2152 227.828 36.7202 225.566 33.278C222.838 29.1262 218.169 26.3145 213.228 25.848C210.507 25.591 207.632 26.0564 205.401 27.6389C203.17 29.2213 201.726 32.0491 202.243 34.7375C200.904 33.3751 200.237 31.3786 200.488 29.483C200.74 27.5875 201.904 25.8347 203.553 24.8701C202.55 21.5503 203.409 17.7315 205.736 15.1625C208.062 12.5935 217.5 13.0311 220.897 13.7072L220.634 13.2559Z" fill="#2F2E41"/>
<path d="M221.162 25.9488C225.661 26.4351 228.909 30.3379 231.652 33.9421C233.233 36.0195 234.889 38.3136 234.849 40.9253C234.809 43.5657 233.046 45.8305 232.204 48.3329C230.827 52.423 232.169 57.2894 235.447 60.0919C232.208 60.7075 228.706 58.2753 228.147 55.0214C227.496 51.2335 230.363 47.5776 230.024 43.7491C229.725 40.3761 227.071 37.7802 224.814 35.2583C222.558 32.7363 220.439 29.3897 221.477 26.167L221.162 25.9488Z" fill="#2F2E41"/>
<path d="M288.419 141.198C283.963 143.736 281.659 148.096 283.272 150.936C284.886 153.776 289.805 154.02 294.263 151.48C296.057 150.49 297.589 149.084 298.729 147.379L317.475 136.386L312.136 127.686L294.223 139.447C292.177 139.558 290.186 140.158 288.419 141.198Z" fill="#FFB6B6"/>
<path d="M351.887 60.5794C351.327 60.3571 346.412 58.4929 341.925 60.9541C336.77 63.7814 335.974 70.2353 335.694 72.499C335.049 77.728 336.95 78.9001 337.351 84.1939C338.102 94.098 340.081 82.7993 336.92 87.3201C335.826 88.885 324.653 113.135 318.491 117.885C306.507 127.122 298.897 133.628 298.897 133.628L307.585 143.08C307.585 143.08 321.313 139.416 333.447 131.526C345.894 123.432 352.118 119.385 356.932 111.468C357.347 110.786 367.268 93.9132 361.94 75.256C360.725 71.0003 358.498 63.203 351.887 60.5794Z" fill="#6C63FF"/>
<path d="M396.749 107.697L395.972 143.995C395.897 147.509 393.031 150.318 389.522 150.318H322.849C319.422 150.318 316.594 147.636 316.407 144.209L314.425 107.911C314.223 104.21 317.166 101.097 320.867 101.097H390.299C393.916 101.097 396.827 104.075 396.749 107.697Z" fill="#3F3D56"/>
</g>
<defs>
<clipPath id="clip0_2_8">
<rect width="420" height="215" fill="white" transform="translate(0.630859)"/>
</clipPath>
</defs>
</svg>
