<svg width="313" height="160" viewBox="0 0 313 160" fill="none" xmlns="http://www.w3.org/2000/svg">
<g clip-path="url(#clip0_2_8)">
<path d="M298.221 88.4987L297.246 96.262L294.827 115.544H246.214C246.594 111.223 247.113 105.002 247.667 98.2866C247.722 97.6159 247.779 96.941 247.834 96.262C249.224 79.3815 250.745 60.2793 250.745 60.2793L257.136 61.4698L269.536 63.7753L274.588 64.7143L288.119 67.2336C294.865 68.4869 299.505 78.2539 298.221 88.4987Z" fill="#F2F2F2"/>
<path d="M261.45 29.042L267.428 39.5025L255.939 47.6447L251.037 34.7868L261.45 29.042Z" fill="#FFB6B6"/>
<path d="M253.84 38.9381C262.019 38.9381 268.65 32.308 268.65 24.1294C268.65 15.9508 262.019 9.32071 253.84 9.32071C245.661 9.32071 239.03 15.9508 239.03 24.1294C239.03 32.308 245.661 38.9381 253.84 38.9381Z" fill="#FFB6B6"/>
<path d="M252.776 27.44C251.6 25.6504 252.062 24.7144 251.078 24.0567C251.078 24.0567 250.681 23.792 247.846 23.6412C247.211 19.0727 246.419 18.5186 246.419 18.5186C245.506 17.8801 244.15 18.0876 243.307 18.4781C241.524 19.304 241.73 21.0882 240.53 21.4296C238.871 21.9012 235.853 19.2424 235.556 16.1986C235.313 13.7158 236.913 11.3043 237.547 11.4318C238.177 11.5583 239.683 9.63552 240.496 9.66517C241.052 9.68543 243.321 8.69914 243.931 8.77625C244.598 8.86048 246.796 10.0075 246.888 9.74546C247.524 7.92435 247.337 7.41907 247.877 6.89809C248.834 5.97492 250.4 6.61779 252.856 6.96293C257.91 7.67304 258.792 6.00679 261.382 7.13619C262.69 7.7067 263.785 9.24532 265.921 12.2993C268.908 16.5701 270.402 18.7056 270.412 21.1963C270.421 23.7363 269.191 23.5751 268.651 27.3355C268.05 31.5214 269.327 33.4354 267.931 34.7953C266.852 35.8463 264.659 36.0958 263.507 35.1734C261.534 33.5941 264.116 29.7832 261.933 26.999C260.592 25.2899 257.897 24.5295 256.663 25.3743C255.267 26.3295 256.036 29.1333 255.054 29.3992C254.213 29.6269 252.981 27.7518 252.776 27.44Z" fill="#2F2E41"/>
<path d="M287.275 85.7646C286.862 92.8271 285.221 95.0568 284.646 103.398C284.521 105.229 284.445 107.354 284.445 109.889C284.445 110.535 284.449 111.16 284.449 111.771C284.449 113.07 284.424 114.298 284.273 115.544C284.158 116.539 283.961 117.541 283.634 118.596H251.737C251.734 118.589 251.734 118.582 251.73 118.575C251.543 117.763 251.425 116.988 251.335 116.244C251.306 116.007 251.281 115.774 251.26 115.544C251.231 115.275 251.206 115.009 251.181 114.747C251.084 113.702 250.987 112.715 250.757 111.771C250.448 110.467 249.888 109.239 248.739 108.054C248.269 107.57 247.798 107.193 247.339 106.862C247.249 106.801 247.163 106.74 247.073 106.679C245.802 105.807 244.599 105.178 243.558 103.398C243.54 103.372 243.525 103.344 243.511 103.319C243.331 103.006 242.865 102.187 242.527 101.096C242.171 99.9615 241.956 98.536 242.344 97.0784C243.267 93.6243 246.685 93.2796 249.479 89.7896C249.78 89.4126 250.078 88.9961 250.362 88.5329C251.626 86.479 251.967 84.6696 252.369 82.5188C252.434 82.1704 252.491 81.8258 252.538 81.492C252.574 81.2406 252.606 80.9928 252.632 80.7486C252.854 78.6985 252.746 76.932 252.484 75.3522C251.63 70.1782 249.109 66.9755 250.89 62.3329C251.45 60.8754 252.244 59.7801 253.044 58.8431C254.739 56.8574 256.481 55.5685 256.179 53.005C255.874 50.4198 253.913 50.0642 253.694 47.8058C253.583 46.6641 253.956 45.4613 254.657 44.28V44.2765C256.897 40.474 262.492 36.9733 266.046 37.0846C266.704 37.1027 267.285 37.2498 267.77 37.5334C269.526 38.5674 268.793 40.8259 271.483 43.9928C273.483 46.3445 275.745 47.2853 276.603 47.7304C280.004 49.5043 282.769 54.7356 284.646 61.4246C284.661 61.4749 284.675 61.5251 284.69 61.5791C285.85 65.7692 286.668 70.5266 287.074 75.3522C287.246 77.3951 287.347 79.449 287.368 81.4811C287.386 83.104 287.35 84.5116 287.275 85.7646Z" fill="#6C63FF"/>
<path d="M263.389 109.961L262.739 111.771L262.33 112.905L261.382 115.544L260.283 118.596H253.22L254.405 115.544L254.955 114.122L255.867 111.771L257.396 107.821L263.389 109.961Z" fill="#FFB6B6"/>
<path d="M284.758 60.807C284.74 61.0405 284.715 61.2989 284.69 61.5791C284.41 64.4299 283.749 69.532 282.783 75.3522C282.273 78.422 281.677 81.6931 281.005 84.9424C279.562 91.9546 277.767 98.8593 275.738 103.398C275.375 104.216 275.002 104.956 274.621 105.609C274.33 106.108 274.025 106.6 273.705 107.085C272.671 108.676 271.511 110.184 270.309 111.591C270.262 111.652 270.208 111.71 270.154 111.771C269.96 112 269.759 112.227 269.558 112.453C268.574 113.562 267.569 114.596 266.596 115.544C265.411 116.7 264.269 117.724 263.246 118.596H251.777L251.73 118.575L250.078 117.842C250.078 117.842 250.549 117.289 251.335 116.244C251.497 116.032 251.669 115.799 251.856 115.544C252.086 115.232 252.333 114.887 252.599 114.514C253.152 113.731 253.78 112.812 254.455 111.771C255.763 109.756 257.253 107.279 258.757 104.41C258.93 104.076 259.105 103.739 259.281 103.398C259.285 103.387 259.292 103.376 259.296 103.365C259.594 102.784 259.888 102.184 260.183 101.574C262.678 96.3817 263.393 92.0731 263.598 90.6765C263.885 88.7017 264.283 85.9405 264.176 82.9029C264.104 80.8996 263.813 78.7811 263.12 76.6771V76.6736C262.976 76.2319 262.815 75.7903 262.632 75.3522C262.305 74.5659 261.917 73.7903 261.457 73.0256C259.429 69.6577 257.781 69.5176 256.47 65.8481C256.082 64.7602 255.202 62.3044 255.472 59.712V59.7085C255.504 59.3889 255.558 59.0657 255.63 58.7425V58.739C255.648 58.6492 255.673 58.5559 255.698 58.4662C255.902 57.6727 256.24 56.8862 256.754 56.1393C257.755 54.6889 259.123 53.8271 260.348 53.3138L260.352 53.3101C261.766 52.7214 262.987 52.5957 263.224 52.5741C268.47 52.1074 272.538 56.5165 274.761 58.9257C275.619 59.8555 276.406 60.6348 277.124 61.2702C282.715 66.2611 284.248 63.0726 284.646 61.4246C284.707 61.1697 284.74 60.9508 284.758 60.807Z" fill="#6C63FF"/>
<path d="M284.776 60.6205C284.776 60.6383 284.772 60.6993 284.758 60.7998C284.765 60.7459 284.769 60.6921 284.772 60.6418C284.772 60.6312 284.772 60.624 284.776 60.6205Z" fill="#6C63FF"/>
<path d="M256.258 136.383H63.7759C61.9875 136.383 60.5298 137.838 60.5298 139.626C60.5298 141.418 61.9875 142.872 63.7759 142.872H256.258C258.046 142.872 259.501 141.418 259.501 139.626C259.501 137.838 258.046 136.383 256.258 136.383Z" fill="#E6E6E6"/>
<path d="M213.543 153.144H106.488C104.7 153.144 103.245 154.598 103.245 156.386C103.245 158.175 104.7 159.632 106.488 159.632H213.543C215.331 159.632 216.789 158.175 216.789 156.386C216.789 154.598 215.331 153.144 213.543 153.144Z" fill="#E6E6E6"/>
<path d="M85.1944 29.7303L97.3253 24.6254L102.528 35.2912L89.7807 40.494L85.1944 29.7303Z" fill="#FFB6B6"/>
<path opacity="0.1" d="M85.1944 29.7303L97.3253 24.6254L102.528 35.2912L89.7807 40.494L85.1944 29.7303Z" fill="black"/>
<path d="M86.919 25.666L98.8863 39.4534C98.8863 39.4534 90.5612 65.7275 82.2362 68.0688C73.9111 70.4101 58.5618 81.8562 58.5618 81.8562L39.3101 69.3695L48.6758 55.5821C48.6758 55.5821 71.3095 24.6254 77.2932 24.6254C83.2768 24.6254 86.919 25.666 86.919 25.666Z" fill="#6C63FF"/>
<path d="M70.7501 115.544H42.8924L41.1311 113.19L33.9403 103.578L32.2857 101.367C32.2857 101.367 26.0419 89.9205 27.3427 79.515C28.6435 69.1094 42.1717 66.7681 42.1717 66.7681H42.7285L59.2902 81.3203L58.3016 94.8632L63.5463 103.578L70.7501 115.544Z" fill="#2F2E41"/>
<path d="M48.5977 115.544H41.1311V104.488L48.5977 115.544Z" fill="#2F2E41"/>
<path d="M209.641 98.7601L208.712 103.578L206.407 115.544H160.102C160.463 112.862 160.957 109.002 161.486 104.834C161.538 104.418 161.592 103.999 161.644 103.578C162.969 93.102 164.418 81.2474 164.418 81.2474L170.505 81.9863L182.316 83.417L187.129 83.9997L200.018 85.5632C206.444 86.341 210.864 92.4023 209.641 98.7601Z" fill="#F2F2F2"/>
<path d="M275.172 115.545H250.057C250.439 115.095 250.655 114.834 250.655 114.834L258.184 113.591L273.697 111.031C273.697 111.031 274.405 112.86 275.172 115.545Z" fill="#2F2E41"/>
<path d="M168.638 34.9335L179.561 50.3791L160.509 50.948L158.463 36.4328L168.638 34.9335Z" fill="#A0616A"/>
<path opacity="0.1" d="M168.638 34.9335L179.561 50.3791L160.509 50.948L158.463 36.4328L168.638 34.9335Z" fill="black"/>
<path d="M114.774 66.9356C113.372 62.893 110.15 60.3393 107.578 61.2315C105.005 62.1238 104.056 66.1237 105.458 70.1676C105.996 71.7906 106.915 73.2612 108.138 74.4563L114.293 91.5099L122.235 88.4514L115.324 71.9643C115.545 70.2682 115.356 68.5438 114.774 66.9356Z" fill="#A0616A"/>
<path d="M188.708 59.0654L188.693 74.8064L187.228 80.6206L184.216 92.5792L182.022 103.578L180.389 111.772L179.806 114.699C179.366 114.993 178.929 115.274 178.492 115.544H140.439C138.277 114.246 137.067 113.237 137.067 113.237C137.067 113.237 137.665 112.675 138.35 111.772C139.505 110.248 140.902 107.751 140.046 105.365C139.866 104.866 139.819 104.257 139.874 103.578C140.223 99.0983 144.921 91.523 144.921 91.523L143.948 80.2798L143.522 75.3527L146.53 51.3287L156.335 45.629L158.028 45.4652L174.738 44.5626L181.645 44.9606L181.959 45.0464L188.708 59.0654Z" fill="#CCCCCC"/>
<path d="M189.45 115.545H181.125L180.758 111.772L180.75 111.697L183.107 111.536L189.239 111.117L189.346 113.375L189.429 115.108L189.45 115.545Z" fill="#FFB6B6"/>
<path d="M191.499 62.8712L194.996 83.3884L192.143 103.578L191.698 106.72L190.912 112.269L190.67 113.976L190.678 114.16L190.738 115.544H180.852L180.487 111.772L180.456 111.434L179.712 103.708L179.699 103.578L178.12 87.1943L181.216 75.3527L181.445 74.4812V74.4786L182.792 54.2033L181.749 44.9892L181.738 44.9033C181.759 44.9163 181.777 44.9294 181.798 44.9424C181.853 44.9762 181.907 45.01 181.959 45.0464C188.037 48.9017 191.658 55.6653 191.499 62.8712Z" fill="#CCCCCC"/>
<path d="M150.072 55.2602L146.27 51.3284C146.27 51.3284 138.132 54.997 137.726 57.0323C137.32 59.0676 122.951 88.961 122.951 88.961L116.7 72.2657L108.562 77.6982C108.562 77.6982 115.092 103.619 121.198 104.836C127.305 106.052 147.77 74.1562 147.77 74.1562L150.072 55.2602Z" fill="#CCCCCC"/>
<path d="M304.435 103.398H8.38492C4.19454 103.398 0.786835 106.808 0.786835 110.999C0.786835 115.189 4.19454 118.596 8.38492 118.596H304.435C308.626 118.596 312.037 115.189 312.037 110.999C312.037 106.808 308.626 103.398 304.435 103.398Z" fill="#E6E6E6"/>
<path d="M186.975 80.236L186.4 107.094C186.344 109.694 184.22 111.772 181.62 111.772H132.21C129.671 111.772 127.574 109.788 127.436 107.252L125.967 80.3946C125.818 77.6557 127.998 75.3527 130.741 75.3527H182.195C184.876 75.3527 187.033 77.5561 186.975 80.236Z" fill="#3F3D56"/>
<path d="M107.211 36.2135C113.74 36.2135 119.033 30.9212 119.033 24.3929C119.033 17.8646 113.74 12.5724 107.211 12.5724C100.683 12.5724 95.3899 17.8646 95.3899 24.3929C95.3899 30.9212 100.683 36.2135 107.211 36.2135Z" fill="#FFB6B6"/>
<path d="M87.4393 55.3219L88.7401 69.3695L97.5855 105.009L89.9437 107.687L77.033 68.8492L75.2498 53.2408L87.4393 55.3219Z" fill="#FFB6B6"/>
<path d="M83.9207 80.236L83.3451 107.094C83.2894 109.694 81.1657 111.772 78.565 111.772H29.1553C26.6161 111.772 24.5198 109.788 24.3812 107.252L22.9129 80.3946C22.7631 77.6557 24.9438 75.3527 27.687 75.3527H79.1406C81.8213 75.3527 83.9781 77.5561 83.9207 80.236Z" fill="#3F3D56"/>
<path d="M98.9939 111.954C104.15 111.954 108.33 110.105 108.33 107.825C108.33 105.544 104.15 103.696 98.9939 103.696C93.8377 103.696 89.6579 105.544 89.6579 107.825C89.6579 110.105 93.8377 111.954 98.9939 111.954Z" fill="#FFB6B6"/>
<path d="M69.0981 57.4696L74.4313 29.0478C74.4313 29.0478 89.2604 26.9667 89.7807 31.9094C90.301 36.852 89.4089 61.0075 89.4089 61.0075L69.0981 57.4696Z" fill="#6C63FF"/>
<path d="M102.439 26.2516C102.439 26.2516 109.752 23.6419 112.837 22.2378C115.921 20.8336 122.05 30.6275 122.186 25.455C122.322 20.2826 120.205 18.1135 120.205 18.1135C120.205 18.1135 119.676 6.79798 108.275 8.21268C108.275 8.21268 110.783 2.55142 102.551 1.67601C94.3194 0.8006 81.513 20.6773 82.6599 23.6477C83.8068 26.6182 85.1817 29.074 81.9278 32.2501C78.674 35.4262 72.581 53.3511 77.2168 58.1746C81.8526 62.9981 82.1567 65.0912 78.9805 68.092C75.8043 71.0928 68.2965 77.6177 76.4141 78.7505C84.5318 79.8832 75.6715 79.0372 81.7233 73.7143C87.7751 68.3915 96.606 68.6089 93.3087 60.0688C90.0113 51.5287 95.74 39.2909 95.0232 37.4343C94.3064 35.5778 96.6292 23.7886 96.6292 23.7886C96.6292 23.7886 102.035 22.9945 102.439 26.2516Z" fill="#2F2E41"/>
<path d="M162.798 40.524C169.905 40.524 175.667 34.763 175.667 27.6565C175.667 20.5499 169.905 14.7889 162.798 14.7889C155.691 14.7889 149.93 20.5499 149.93 27.6565C149.93 34.763 155.691 40.524 162.798 40.524Z" fill="#A0616A"/>
<path d="M163.825 10.3569C163.453 10.5743 162.954 10.2454 162.835 9.83117C162.715 9.41689 162.854 8.97705 162.992 8.56857L163.687 6.51224C164.179 5.05384 164.702 3.54448 165.768 2.43445C167.378 0.759037 169.936 0.33282 172.239 0.641599C175.196 1.03813 178.114 2.63937 179.489 5.28722C180.864 7.93508 180.279 11.6298 177.794 13.2818C181.335 17.3403 182.57 21.8633 182.375 27.2458C182.18 32.6283 176.314 37.5819 172.488 41.3737C171.634 40.8559 170.857 38.4291 171.327 37.5476C171.797 36.666 171.124 35.6446 171.706 34.8326C172.288 34.0206 172.774 35.3136 172.186 34.5062C171.815 33.9967 173.264 32.8245 172.712 32.5196C170.043 31.0447 169.156 27.7187 167.48 25.1718C165.458 22.0997 161.998 20.0193 158.337 19.6741C156.32 19.484 154.19 19.8284 152.536 20.9992C150.883 22.1701 149.813 24.2625 150.196 26.2517C149.203 25.2436 148.709 23.7663 148.895 22.3638C149.082 20.9613 149.945 19.6643 151.166 18.9506C150.424 16.4941 151.06 13.6686 152.784 11.7677C154.508 9.86685 161.503 10.1906 164.02 10.6909L163.825 10.3569Z" fill="#2F2E41"/>
<path d="M164.216 19.7487C167.55 20.1086 169.957 22.9963 171.99 25.6631C173.162 27.2003 174.389 28.8977 174.359 30.8301C174.33 32.7839 173.023 34.4596 172.399 36.3112C171.379 39.3376 172.373 42.9383 174.802 45.012C172.402 45.4675 169.807 43.6678 169.393 41.2602C168.91 38.4574 171.035 35.7524 170.783 32.9196C170.562 30.4238 168.595 28.5031 166.923 26.637C165.251 24.7709 163.68 22.2947 164.449 19.9102L164.216 19.7487Z" fill="#2F2E41"/>
<path d="M214.059 105.024C210.756 106.902 209.049 110.128 210.244 112.23C211.44 114.331 215.086 114.511 218.389 112.632C219.719 111.899 220.854 110.859 221.699 109.598L235.591 101.463L231.634 95.0263L218.36 103.729C216.843 103.811 215.368 104.255 214.059 105.024Z" fill="#FFB6B6"/>
<path d="M261.093 45.3727C260.678 45.2082 257.035 43.8289 253.71 45.65C249.89 47.7419 249.3 52.5173 249.093 54.1922C248.615 58.0613 250.023 58.9286 250.321 62.8456C250.877 70.1738 252.343 61.8137 250.001 65.1587C249.19 66.3166 240.91 84.2595 236.344 87.774C227.463 94.6094 221.823 99.4231 221.823 99.4231L228.261 106.416C228.261 106.416 238.435 103.706 247.428 97.8674C256.652 91.8785 261.264 88.884 264.832 83.0261C265.139 82.5216 272.491 70.0371 268.543 56.2322C267.642 53.0833 265.992 47.3139 261.093 45.3727Z" fill="#6C63FF"/>
<path d="M294.339 80.236L293.763 107.094C293.707 109.694 291.584 111.772 288.983 111.772H239.573C237.034 111.772 234.938 109.788 234.799 107.252L233.331 80.3946C233.181 77.6557 235.362 75.3527 238.105 75.3527H289.559C292.239 75.3527 294.396 77.5561 294.339 80.236Z" fill="#3F3D56"/>
</g>
<defs>
<clipPath id="clip0_2_8">
<rect width="311.25" height="159.083" fill="white" transform="translate(0.786865 0.548615)"/>
</clipPath>
</defs>
</svg>
